<svg width="16" height="18" viewBox="0 0 16 18" fill="none" xmlns="http://www.w3.org/2000/svg">
<path d="M7.87161 8.67065C9.06281 8.67065 10.0943 8.24342 10.9371 7.4005C11.7799 6.55771 12.2071 5.52651 12.2071 4.33519C12.2071 3.14427 11.7799 2.11294 10.9369 1.26988C10.094 0.427229 9.06267 0 7.87161 0C6.68028 0 5.64908 0.427229 4.80629 1.27001C3.9635 2.1128 3.53613 3.14414 3.53613 4.33519C3.53613 5.52651 3.9635 6.55785 4.80643 7.40064C5.64935 8.24328 6.68069 8.67065 7.87161 8.67065Z" fill="#FF0000"/>
<path d="M15.4577 13.8417C15.4333 13.491 15.3842 13.1084 15.3118 12.7043C15.2388 12.2973 15.1447 11.9125 15.0321 11.5608C14.9158 11.1973 14.7576 10.8383 14.562 10.4943C14.359 10.1373 14.1206 9.82635 13.8531 9.57051C13.5734 9.30285 13.2309 9.08766 12.8348 8.93069C12.4401 8.77455 12.0027 8.69545 11.5349 8.69545C11.3511 8.69545 11.1734 8.77084 10.8302 8.99428C10.619 9.13202 10.3719 9.29132 10.0962 9.46751C9.8604 9.61775 9.54097 9.75851 9.14642 9.88595C8.76149 10.0105 8.37065 10.0737 7.98489 10.0737C7.59914 10.0737 7.20844 10.0105 6.82309 9.88595C6.42896 9.75865 6.10953 9.61789 5.87401 9.46765C5.60086 9.2931 5.35367 9.1338 5.1393 8.99414C4.79652 8.77071 4.61868 8.69531 4.43494 8.69531C3.96692 8.69531 3.52966 8.77455 3.13512 8.93083C2.73933 9.08752 2.3967 9.30272 2.11668 9.57064C1.8493 9.82663 1.61076 10.1374 1.40807 10.4943C1.21265 10.8383 1.05444 11.1972 0.937988 11.5609C0.825516 11.9126 0.731445 12.2973 0.658386 12.7043C0.586014 13.1078 0.53685 13.4906 0.512543 13.8421C0.488647 14.1865 0.476562 14.544 0.476562 14.905C0.476562 15.8446 0.775253 16.6053 1.36426 17.1663C1.94598 17.7199 2.71571 18.0007 3.65175 18.0007H12.3189C13.2549 18.0007 14.0244 17.72 14.6062 17.1663C15.1954 16.6057 15.494 15.8449 15.494 14.9049C15.4939 14.5422 15.4817 14.1845 15.4577 13.8417Z" fill="#FF0000"/>
</svg>
