<svg width="9" height="7" viewBox="0 0 9 7" fill="none" xmlns="http://www.w3.org/2000/svg">
<path d="M0.134363 3.17308L3.17302 0.134352C3.25976 0.0476116 3.37537 0 3.49864 0C3.62205 0 3.73759 0.04768 3.82433 0.134352L4.10022 0.410308C4.18689 0.496912 4.23464 0.612589 4.23464 0.735928C4.23464 0.859198 4.18689 0.978774 4.10022 1.06538L2.32751 2.84199L7.95949 2.84199C8.21342 2.84199 8.41406 3.04078 8.41406 3.29478V3.68491C8.41406 3.9389 8.21342 4.15774 7.95949 4.15774L2.3074 4.15774L4.10015 5.94427C4.18682 6.03101 4.23457 6.14354 4.23457 6.26688C4.23457 6.39008 4.18682 6.50425 4.10015 6.59092L3.82426 6.86599C3.73752 6.95273 3.62198 7 3.49857 7C3.3753 7 3.2597 6.95212 3.17296 6.86537L0.134295 3.82671C0.047349 3.7397 -0.0004673 3.62354 -0.000125885 3.50007C-0.000398636 3.37618 0.047349 3.25996 0.134363 3.17308Z" fill="#FF0000"/>
</svg>
