<svg width="8" height="8" viewBox="0 0 8 8" fill="none" xmlns="http://www.w3.org/2000/svg">
<path d="M4 0C1.79431 0 0 1.79431 0 4C0 6.20569 1.79431 8 4 8C6.20569 8 8 6.20569 8 4C8 1.79431 6.20569 0 4 0Z" fill="#68B6F3"/>
<path d="M5.75128 4.33264H4.33459V5.74933C4.33459 5.93335 4.1853 6.08264 4.00128 6.08264C3.81726 6.08264 3.66797 5.93335 3.66797 5.74933V4.33264H2.25128C2.06726 4.33264 1.91797 4.18335 1.91797 3.99933C1.91797 3.81531 2.06726 3.66602 2.25128 3.66602H3.66797V2.24933C3.66797 2.06531 3.81726 1.91602 4.00128 1.91602C4.1853 1.91602 4.33459 2.06531 4.33459 2.24933V3.66602H5.75128C5.9353 3.66602 6.08459 3.81531 6.08459 3.99933C6.08459 4.18335 5.9353 4.33264 5.75128 4.33264Z" fill="#FAFAFA"/>
</svg>
