<svg width="8" height="11" viewBox="0 0 8 11" fill="none" xmlns="http://www.w3.org/2000/svg">
<path d="M3.34475 1.31155H4.99146V1.58863H5.58613V1.27276C5.58621 0.966215 5.33694 0.716797 5.03054 0.716797H3.30567C2.99927 0.716797 2.75 0.966215 2.75 1.27276V1.58863H3.34475V1.31155Z" fill="#FF0000"/>
<path d="M6.95999 3.94336H1.37717C1.2242 3.94336 1.10378 4.07386 1.1161 4.22638L1.58284 9.99772C1.60885 10.3199 1.87759 10.568 2.20045 10.568H6.13664C6.4595 10.568 6.72824 10.3199 6.75425 9.99765L7.22098 4.22638C7.23339 4.07386 7.11296 3.94336 6.95999 3.94336ZM2.72898 9.95247C2.72274 9.95285 2.7165 9.95307 2.71033 9.95307C2.55443 9.95307 2.42356 9.83167 2.41386 9.67396L2.12137 4.936C2.1113 4.77205 2.236 4.63095 2.39988 4.62088C2.56322 4.61095 2.70492 4.73536 2.715 4.89939L3.00741 9.63735C3.01756 9.8013 2.89285 9.94232 2.72898 9.95247ZM4.46927 9.6557C4.46927 9.81987 4.33614 9.953 4.17189 9.953C4.00764 9.953 3.87451 9.81987 3.87451 9.6557V4.91765C3.87451 4.7534 4.00764 4.62028 4.17189 4.62028C4.33606 4.62028 4.46927 4.7534 4.46927 4.91765V9.6557ZM6.21579 4.93517L5.93653 9.67314C5.92729 9.83115 5.79619 9.953 5.63998 9.953C5.63412 9.953 5.62818 9.95285 5.62224 9.95255C5.45829 9.94285 5.33321 9.80213 5.34291 9.63818L5.62209 4.90014C5.63171 4.73619 5.77198 4.61111 5.93638 4.6208C6.10033 4.63042 6.22542 4.77122 6.21579 4.93517Z" fill="#FF0000"/>
<path d="M7.98821 3.02747L7.79291 2.44203C7.74142 2.28771 7.59694 2.18359 7.4342 2.18359H0.902643C0.739973 2.18359 0.595418 2.28771 0.544001 2.44203L0.348706 3.02747C0.311046 3.14037 0.360057 3.25554 0.451541 3.31297C0.488826 3.33634 0.532951 3.3504 0.581437 3.3504H7.75548C7.80396 3.3504 7.84816 3.33634 7.88537 3.31289C7.97686 3.25546 8.02587 3.1403 7.98821 3.02747Z" fill="#FF0000"/>
</svg>
