<svg width="16" height="14" viewBox="0 0 16 14" fill="none" xmlns="http://www.w3.org/2000/svg">
<path d="M6.87501 3.92746V2.94531H0.982144C0.440983 2.94531 0 3.3863 0 3.92746V5.89174H7.08224C6.94572 5.29165 6.87501 4.6454 6.87501 3.92746Z" fill="#636363"/>
<path d="M15.674 7.85742C15.0042 8.88965 13.9828 9.76769 12.5194 10.6084C12.2945 10.7371 12.0411 10.8039 11.7857 10.8039C11.5304 10.8039 11.277 10.7371 11.055 10.6104C9.59161 9.76769 8.57019 8.88867 7.89938 7.85742H0V12.7681C0 13.3103 0.440983 13.7503 0.982144 13.7503H14.7322C15.2743 13.7503 15.7143 13.3103 15.7143 12.7681V7.85742H15.674ZM4.41965 10.8039H2.45536C2.18429 10.8039 1.96429 10.5839 1.96429 10.3128C1.96429 10.0417 2.18429 9.82171 2.45536 9.82171H4.41965C4.69072 9.82171 4.91072 10.0417 4.91072 10.3128C4.91072 10.5839 4.69072 10.8039 4.41965 10.8039Z" fill="#636363"/>
<path d="M15.417 1.51299L11.9795 0.0397768C11.8547 -0.0132589 11.7163 -0.0132589 11.5915 0.0397768L8.15403 1.51299C7.9743 1.5896 7.85742 1.76737 7.85742 1.9638V3.92808C7.85742 6.62996 8.85626 8.20925 11.5414 9.75613C11.6171 9.79934 11.7015 9.82095 11.786 9.82095C11.8705 9.82095 11.9549 9.79934 12.0306 9.75613C14.7157 8.21318 15.7146 6.63389 15.7146 3.92808V1.9638C15.7146 1.76737 15.5977 1.5896 15.417 1.51299ZM13.6432 3.74442L11.6789 6.19978C11.5847 6.31568 11.4432 6.38344 11.2949 6.38344C11.288 6.38344 11.2802 6.38344 11.2743 6.38344C11.1181 6.37657 10.9738 6.29603 10.8864 6.16541L9.90421 4.69219C9.75394 4.4663 9.81483 4.16183 10.0407 4.01157C10.2647 3.86228 10.5701 3.92121 10.7214 4.14808L11.3313 5.06246L12.8752 3.13157C13.0451 2.9204 13.3545 2.88701 13.5656 3.05496C13.7778 3.2229 13.8112 3.53228 13.6432 3.74442Z" fill="#636363"/>
</svg>
