<svg width="5" height="3" viewBox="0 0 5 3" fill="none" xmlns="http://www.w3.org/2000/svg">
<path d="M2.49858 2.99998C2.45251 3.00015 2.40686 2.9907 2.36427 2.97219C2.32168 2.95368 2.283 2.92647 2.25046 2.89213L0.102776 0.630656C0.0369696 0.561374 -3.02238e-09 0.467409 0 0.369431C3.02238e-09 0.271452 0.0369696 0.177487 0.102776 0.108206C0.168582 0.038924 0.257835 3.182e-09 0.350899 0C0.443963 -3.18199e-09 0.533216 0.038924 0.599022 0.108206L2.5 2.10957L4.40098 0.108206C4.46678 0.038924 4.55604 -3.09712e-09 4.6491 0C4.74217 3.09713e-09 4.83142 0.038924 4.89722 0.108206C4.96303 0.177487 5 0.271452 5 0.369431C5 0.467409 4.96303 0.561374 4.89722 0.630656L2.74883 2.8925C2.71601 2.92704 2.67697 2.95434 2.634 2.9728C2.59103 2.99125 2.54499 3.00049 2.49858 2.99998Z" fill="black"/>
</svg>
