<svg width="10" height="10" viewBox="0 0 10 10" fill="none" xmlns="http://www.w3.org/2000/svg">
<path d="M7.4953 4.56099C7.31532 4.56099 7.16941 4.70689 7.16941 4.88688V8.1457C7.16941 8.32568 7.02351 8.47158 6.84352 8.47158H0.977649C0.797662 8.47158 0.65176 8.32568 0.65176 8.1457V1.62804C0.65176 1.44805 0.797662 1.30215 0.977649 1.30215H4.88825C5.06823 1.30215 5.21413 1.15625 5.21413 0.976261C5.21413 0.796274 5.06823 0.650391 4.88825 0.650391H0.977649C0.437708 0.650391 0 1.0881 0 1.62804V8.1457C0 8.68564 0.437708 9.12334 0.977649 9.12334H6.84354C7.38348 9.12334 7.82119 8.68564 7.82119 8.1457V4.88686C7.82119 4.70689 7.67529 4.56099 7.4953 4.56099Z" fill="#636363"/>
<path d="M8.75916 0.36544C8.52517 0.131415 8.2078 -3.30336e-05 7.87687 5.15579e-06C7.54575 -0.00094958 7.22805 0.130728 6.99471 0.36565L2.70217 4.65784C2.66655 4.69371 2.63969 4.73733 2.62363 4.78525L1.97187 6.74055C1.91499 6.91132 2.00731 7.09585 2.17807 7.15271C2.2112 7.16375 2.2459 7.16938 2.2808 7.16942C2.31578 7.16936 2.35056 7.16375 2.38378 7.15281L4.33908 6.50105C4.3871 6.48501 4.43073 6.45801 4.4665 6.42219L8.75903 2.12966C9.24623 1.64251 9.24629 0.852641 8.75916 0.36544Z" fill="#636363"/>
</svg>
