<svg width="20" height="20" viewBox="0 0 20 20" fill="none" xmlns="http://www.w3.org/2000/svg">
<path d="M20 10C20 8.02219 19.4135 6.08879 18.3147 4.4443C17.2159 2.79981 15.6541 1.51809 13.8268 0.761209C11.9996 0.00433283 9.98891 -0.1937 8.0491 0.192152C6.10929 0.578004 4.32746 1.53041 2.92894 2.92894C1.53041 4.32746 0.578004 6.10929 0.192152 8.0491C-0.1937 9.98891 0.00433283 11.9996 0.761209 13.8268C1.51809 15.6541 2.79981 17.2159 4.4443 18.3147C6.08879 19.4135 8.02219 20 10 20C10.0588 20 10.1169 20 10.1757 20V12.2133H8.02689V9.70943H10.175V7.86655C10.175 5.72959 11.4795 4.56659 13.3854 4.56659C14.0288 4.56444 14.6718 4.59739 15.3116 4.66532V6.8989H13.998C12.9611 6.8989 12.7601 7.38902 12.7601 8.11511V9.71013H15.2395L14.9139 12.2133H12.7573V19.6135C14.8437 19.0135 16.6783 17.7512 17.9843 16.017C19.2903 14.2829 19.9968 12.1709 19.9972 10H20Z" fill="#FF0000"/>
</svg>
