<svg width="29" height="30" viewBox="0 0 29 30" fill="none" xmlns="http://www.w3.org/2000/svg">
<path d="M14.4999 18.8575C13.9994 18.8575 13.5938 18.3765 13.5938 17.7833V10.2637C13.5938 9.67044 13.9994 9.18945 14.4999 9.18945C15.0003 9.18945 15.406 9.67044 15.406 10.2637V17.7833C15.406 18.3766 15.0003 18.8575 14.4999 18.8575Z" fill="#EE101F"/>
<path d="M28.6163 24.2506L17.3357 1.96174C16.0558 -0.56813 12.9468 -0.573031 11.6645 1.96174L0.383723 24.2506C-0.683068 26.3585 0.600399 29.0625 2.68188 29.0625H26.3181C28.3999 29.0625 29.6829 26.3581 28.6163 24.2506ZM26.3181 26.914H2.68194C2.00676 26.914 1.59277 26.0365 1.93778 25.3557L13.2185 3.06686C13.7972 1.92327 15.2022 1.92193 15.7817 3.06686L27.0623 25.3557C27.4069 26.0358 26.9939 26.914 26.3181 26.914Z" fill="#EE101F"/>
<path d="M14.4998 23.1543C15.2505 23.1543 15.859 22.4329 15.859 21.543C15.859 20.6531 15.2505 19.9316 14.4998 19.9316C13.7492 19.9316 13.1406 20.6531 13.1406 21.543C13.1406 22.4329 13.7492 23.1543 14.4998 23.1543Z" fill="#EE101F"/>
</svg>
