<svg width="11" height="12" viewBox="0 0 11 12" fill="none" xmlns="http://www.w3.org/2000/svg">
<path d="M9.78403 0.498047H0.992585C0.582684 0.498047 0.341732 0.960018 0.576592 1.29618C0.581113 1.30259 0.437425 1.10691 3.9312 5.86255C4.00957 5.97594 4.05098 6.10863 4.05098 6.24653V10.8299C4.05098 11.2756 4.56191 11.5214 4.90836 11.2592L6.39754 10.1367C6.60302 9.98408 6.72563 9.74034 6.72563 9.48434V6.24653C6.72563 6.10863 6.76703 5.97594 6.84542 5.86255C10.3365 1.11056 10.1955 1.30254 10.2 1.29618C10.4348 0.960167 10.1941 0.498047 9.78403 0.498047V0.498047ZM6.32974 5.48884C6.18538 5.68534 6.08881 5.95932 6.08881 6.24651V9.4843C6.08881 9.53977 6.06217 9.5926 6.01759 9.62557C5.97839 9.65446 6.27534 9.43127 4.68781 10.628V6.24653C4.68781 5.97639 4.60602 5.71652 4.45129 5.49504C4.44745 5.48954 4.55526 5.63639 2.26185 2.51467H8.51474L6.32974 5.48884ZM8.98259 1.87783H1.79402L1.2482 1.13487H9.52841L8.98259 1.87783Z" fill="#FF0000"/>
</svg>
