<svg width="18" height="18" viewBox="0 0 18 18" fill="none" xmlns="http://www.w3.org/2000/svg">
<path d="M9 0C13.9433 0 18 4.0567 18 9C18 13.9433 13.9433 18 9 18C7.42511 18 5.87453 17.5839 4.51662 16.7964L5.04602 15.8839C6.24326 16.5781 7.61064 16.9453 9 16.9453C13.3618 16.9453 16.9453 13.3618 16.9453 9C16.9453 4.63815 13.3618 1.05469 9 1.05469C4.63815 1.05469 1.05469 4.63815 1.05469 9C1.05469 10.4028 1.42177 11.7727 2.10938 12.9628V11.6719H3.16406V14.8359H0V13.7812H1.37192C0.486145 12.3635 0 10.6797 0 9C0 4.0567 4.0567 0 9 0Z" fill="#FF0000"/>
<path d="M9 3.16406C12.1985 3.16406 14.8359 5.80147 14.8359 9C14.8359 12.1985 12.1985 14.8359 9 14.8359C5.80147 14.8359 3.16406 12.1985 3.16406 9C3.16406 5.80147 5.80147 3.16406 9 3.16406ZM5.30859 9.52734H9.52734V5.27344H8.47266V8.47266H5.30859V9.52734Z" fill="#FF0000"/>
</svg>
