<svg width="16" height="15" viewBox="0 0 16 15" fill="none" xmlns="http://www.w3.org/2000/svg">
<path d="M14.6498 6.10829C14.6495 6.10797 14.6492 6.10765 14.6489 6.10733L8.92019 0.378862C8.67601 0.134573 8.35136 0 8.00604 0C7.66071 0 7.33607 0.134466 7.09178 0.378755L1.3661 6.10433C1.36417 6.10626 1.36224 6.10829 1.36031 6.11022C0.858876 6.61455 0.859733 7.43281 1.36278 7.93585C1.5926 8.16578 1.89614 8.29896 2.22068 8.31289C2.23386 8.31418 2.24714 8.31482 2.26054 8.31482H2.48886V12.5306C2.48886 13.3648 3.16762 14.0436 4.00206 14.0436H6.2433C6.47045 14.0436 6.65474 13.8594 6.65474 13.6322V10.327C6.65474 9.9463 6.96438 9.63666 7.34507 9.63666H8.66701C9.04769 9.63666 9.35734 9.9463 9.35734 10.327V13.6322C9.35734 13.8594 9.54152 14.0436 9.76877 14.0436H12.01C12.8445 14.0436 13.5232 13.3648 13.5232 12.5306V8.31482H13.7349C14.0802 8.31482 14.4048 8.18035 14.6492 7.93606C15.1528 7.43216 15.153 6.61251 14.6498 6.10829Z" fill="#FF0000"/>
</svg>
