<svg width="6" height="6" viewBox="0 0 6 6" fill="none" xmlns="http://www.w3.org/2000/svg">
<path d="M3 0C1.34176 0 0 1.34188 0 3C0 4.65824 1.34188 6 3 6C4.65824 6 6 4.65812 6 3C6 1.34176 4.65811 0 3 0ZM3 5.53125C1.60086 5.53125 0.46875 4.39904 0.46875 3C0.46875 1.60086 1.60096 0.46875 3 0.46875C4.39914 0.46875 5.53125 1.60096 5.53125 3C5.53125 4.39914 4.39903 5.53125 3 5.53125Z" fill="#FF0000" fill-opacity="0.38"/>
<path d="M3 2.51172C2.87055 2.51172 2.76562 2.61665 2.76562 2.74609V4.25539C2.76562 4.38483 2.87055 4.48976 3 4.48976C3.12945 4.48976 3.23438 4.38482 3.23438 4.25538V2.74609C3.23438 2.61665 3.12945 2.51172 3 2.51172Z" fill="#FF0000" fill-opacity="0.38"/>
<path d="M3 2.22461C3.17475 2.22461 3.31641 2.08295 3.31641 1.9082C3.31641 1.73346 3.17475 1.5918 3 1.5918C2.82525 1.5918 2.68359 1.73346 2.68359 1.9082C2.68359 2.08295 2.82525 2.22461 3 2.22461Z" fill="#FF0000" fill-opacity="0.38"/>
</svg>
