<svg width="20" height="20" viewBox="0 0 20 20" fill="none" xmlns="http://www.w3.org/2000/svg">
<path d="M10 0C8.02219 0 6.08879 0.58649 4.4443 1.6853C2.79981 2.78412 1.51809 4.3459 0.761209 6.17316C0.00433283 8.00043 -0.1937 10.0111 0.192152 11.9509C0.578004 13.8907 1.53041 15.6725 2.92894 17.0711C4.32746 18.4696 6.10929 19.422 8.0491 19.8078C9.98891 20.1937 11.9996 19.9957 13.8268 19.2388C15.6541 18.4819 17.2159 17.2002 18.3147 15.5557C19.4135 13.9112 20 11.9778 20 10C19.9998 7.34789 18.9462 4.80446 17.0709 2.92914C15.1955 1.05381 12.6521 0.000185676 10 0V0ZM7.09425 15.1169H4.65831V7.79022H7.09355L7.09425 15.1169ZM5.87663 6.79176H5.86053C5.68632 6.80231 5.51181 6.77682 5.3479 6.71689C5.18399 6.65696 5.03419 6.56388 4.90787 6.44345C4.78156 6.32302 4.68143 6.17784 4.61374 6.01698C4.54605 5.85611 4.51227 5.68302 4.51449 5.50851C4.51671 5.334 4.55489 5.16182 4.62664 5.00273C4.6984 4.84364 4.80219 4.70105 4.93153 4.58387C5.06087 4.4667 5.21299 4.37746 5.37837 4.32171C5.54375 4.26597 5.71885 4.24493 5.89274 4.25991C6.06771 4.2468 6.24351 4.2701 6.40904 4.32832C6.57456 4.38654 6.72623 4.47843 6.85448 4.59819C6.98272 4.71795 7.08476 4.86299 7.15416 5.02415C7.22355 5.18531 7.25881 5.3591 7.25769 5.53457C7.25657 5.71003 7.21911 5.88336 7.14767 6.04363C7.07623 6.2039 6.97235 6.34762 6.8426 6.46574C6.71284 6.58386 6.56001 6.67381 6.39376 6.72992C6.22751 6.78604 6.05143 6.80709 5.87663 6.79176ZM15.8759 15.1169H13.4435V11.1959C13.4435 10.2108 13.0934 9.53928 12.2098 9.53928C11.9342 9.54009 11.6656 9.62649 11.4412 9.78654C11.2168 9.94659 11.0477 10.1724 10.9572 10.4327C10.8948 10.6244 10.8678 10.8258 10.8773 11.0272V15.1169H8.4421C8.4421 15.1169 8.47431 8.4771 8.4421 7.79022H10.8773V8.82789C11.0978 8.44501 11.419 8.12986 11.806 7.91668C12.1929 7.70349 12.631 7.60043 13.0724 7.61868C14.6744 7.61868 15.8731 8.66895 15.8731 10.9165L15.8759 15.1169Z" fill="#FF0000"/>
</svg>
