<svg width="10" height="12" viewBox="0 0 10 12" fill="none" xmlns="http://www.w3.org/2000/svg">
<path d="M8.00001 3.99999H7.42859V2.85713C7.42859 1.28001 6.14858 0 4.57144 0C2.99429 0 1.71429 1.28001 1.71429 2.85715V4.00002H1.14287C0.511446 4.00002 0 4.51144 0 5.14288V10.8572C0 11.4886 0.511446 12 1.14287 12H8.00001C8.63143 12 9.14287 11.4886 9.14287 10.8571V5.14286C9.14287 4.51144 8.63143 3.99999 8.00001 3.99999ZM4.57144 9.14285C3.94002 9.14285 3.42857 8.63143 3.42857 7.99998C3.42857 7.36856 3.94002 6.85714 4.57144 6.85714C5.20286 6.85714 5.7143 7.36856 5.7143 8.00001C5.7143 8.63143 5.20286 9.14285 4.57144 9.14285ZM6.34286 3.99999H2.80002V2.85713C2.80002 1.87998 3.59429 1.08571 4.57144 1.08571C5.54858 1.08571 6.34286 1.87998 6.34286 2.85713V3.99999Z" fill="#FF0000"/>
</svg>
