<svg width="16" height="16" viewBox="0 0 16 16" fill="none" xmlns="http://www.w3.org/2000/svg">
<path d="M13.6566 2.34288C12.1545 0.840844 10.1242 0 7.99997 0C5.86309 0 3.85413 0.832156 2.34313 2.34313C0.832125 3.85413 0 5.86309 0 8C0 9.88585 0.668656 11.717 1.883 13.1564C2.0245 13.3239 2.17325 13.486 2.32816 13.6417C2.43637 13.7505 2.61925 13.6523 2.59138 13.5014C2.53138 13.1766 2.5 12.8419 2.5 12.5C2.5 10.2178 3.89722 8.25588 5.88119 7.42456C5.98416 7.38141 6.01072 7.24628 5.92994 7.16919C5.33369 6.6 4.97088 5.78831 5.00184 4.89409C5.05594 3.33203 6.31966 2.06278 7.8815 2.00231C9.58944 1.93616 11 3.30647 11 5C11 5.85228 10.6427 6.62253 10.07 7.16919C9.98928 7.24628 10.0159 7.38141 10.1188 7.42456C12.1028 8.25588 13.5 10.2178 13.5 12.5C13.5 12.8419 13.4686 13.1766 13.4086 13.5014C13.3807 13.6523 13.5636 13.7504 13.6718 13.6417C13.8267 13.486 13.9756 13.3238 14.1171 13.1562C15.3313 11.717 16 9.88588 16 8C16 5.86297 15.1678 3.85388 13.6566 2.34288Z" fill="#636363"/>
<path d="M8 7C9.10457 7 10 6.10457 10 5C10 3.89543 9.10457 3 8 3C6.89543 3 6 3.89543 6 5C6 6.10457 6.89543 7 8 7Z" fill="#636363"/>
<path d="M4.18823 11.0891L4.8031 10.9554C4.85657 10.7917 4.92279 10.6321 5.00098 10.4783L4.66058 9.94879C4.59979 9.85419 4.61316 9.72998 4.69263 9.65051L5.65051 8.69263C5.72998 8.61316 5.85419 8.59979 5.94879 8.66058L6.47827 9.00098C6.63208 8.92279 6.79175 8.85657 6.95544 8.8031L7.08911 8.18823C7.11298 8.07837 7.21027 8 7.32269 8H8.67731C8.78973 8 8.88702 8.07837 8.91089 8.18823L9.04456 8.8031C9.20825 8.85657 9.36792 8.92279 9.52173 9.00098L10.0512 8.66058C10.1458 8.59979 10.27 8.61316 10.3495 8.69263L11.3074 9.65051C11.3868 9.72998 11.4002 9.85419 11.3394 9.94879L10.999 10.4783C11.0772 10.6321 11.1434 10.7917 11.1969 10.9554L11.8118 11.0891C11.9216 11.113 12 11.2103 12 11.3227V12.6773C12 12.7897 11.9216 12.887 11.8118 12.9109L11.1969 13.0446C11.1434 13.2083 11.0772 13.3679 10.999 13.5217L11.3394 14.0512C11.4002 14.1458 11.3868 14.27 11.3074 14.3495L10.3495 15.3074C10.27 15.3868 10.1458 15.4002 10.0512 15.3394L9.52173 14.999C9.36792 15.0772 9.20825 15.1434 9.04456 15.1969L8.91089 15.8118C8.88702 15.9216 8.78973 16 8.67731 16H7.32269C7.21027 16 7.11298 15.9216 7.08911 15.8118L6.95544 15.1969C6.79175 15.1434 6.63208 15.0772 6.47827 14.999L5.94879 15.3394C5.85419 15.4002 5.72998 15.3869 5.65051 15.3074L4.69263 14.3495C4.61316 14.27 4.59979 14.1458 4.66058 14.0512L5.00098 13.5217C4.92279 13.3679 4.85657 13.2083 4.8031 13.0446L4.18823 12.9109C4.07837 12.887 4 12.7897 4 12.6773V11.3227C4 11.2103 4.07837 11.113 4.18823 11.0891ZM6.56573 12C6.56573 12.7908 7.20917 13.4343 8 13.4343C8.79083 13.4343 9.43427 12.7908 9.43427 12C9.43427 11.2092 8.79083 10.5657 8 10.5657C7.20917 10.5657 6.56573 11.2092 6.56573 12Z" fill="#636363"/>
</svg>
