<svg width="5" height="8" viewBox="0 0 5 8" fill="none" xmlns="http://www.w3.org/2000/svg">
<path d="M4.39945 4.45159L0.973949 7.87703C0.894721 7.95632 0.78896 8 0.676188 8C0.563417 8 0.457655 7.95632 0.378428 7.87703L0.126163 7.62483C-0.0379867 7.46049 -0.0379867 7.19339 0.126163 7.02931L3.00264 4.15283L0.122972 1.27316C0.0437442 1.19387 0 1.08817 0 0.975463C0 0.86263 0.0437442 0.75693 0.122972 0.677577L0.375236 0.425438C0.454526 0.346148 0.560226 0.302467 0.672997 0.302467C0.785768 0.302467 0.89153 0.346148 0.970757 0.425438L4.39945 3.854C4.47886 3.93355 4.52248 4.03975 4.52223 4.15264C4.52248 4.26598 4.47886 4.37211 4.39945 4.45159Z" fill="#FF0000"/>
</svg>
