<svg width="11" height="11" viewBox="0 0 11 11" fill="none" xmlns="http://www.w3.org/2000/svg">
<path d="M10.5982 10.2952L7.55423 7.25131C8.13158 6.53854 8.47911 5.6324 8.47911 4.64581C8.47911 2.35875 6.61841 0.498047 4.33134 0.498047C2.04427 0.498047 0.183594 2.35875 0.183594 4.64581C0.183594 6.93288 2.04429 8.79358 4.33136 8.79358C5.31794 8.79358 6.22409 8.44603 6.93686 7.86871L9.9808 10.9126C10.0661 10.9979 10.2043 10.9979 10.2895 10.9126L10.5982 10.604C10.6834 10.5187 10.6834 10.3805 10.5982 10.2952ZM4.33136 7.92036C2.52567 7.92036 1.05681 6.4515 1.05681 4.64581C1.05681 2.84013 2.52567 1.37127 4.33136 1.37127C6.13705 1.37127 7.60591 2.84013 7.60591 4.64581C7.60591 6.4515 6.13705 7.92036 4.33136 7.92036Z" fill="#FF0000"/>
</svg>
