<svg width="18" height="19" viewBox="0 0 18 19" fill="none" xmlns="http://www.w3.org/2000/svg">
<path d="M0.176533 11.6123L2.11649 10.0906C2.07973 9.79639 2.05215 9.49759 2.05215 9.19419C2.05215 8.89078 2.07973 8.59198 2.11649 8.29775L0.171919 6.7761C-0.00275612 6.63818 -0.0533524 6.38994 0.0615902 6.18768L1.90044 3.00189C2.01539 2.8042 2.25441 2.72145 2.46128 2.8042L4.75063 3.72822C5.22415 3.36503 5.74361 3.05706 6.30444 2.8226L6.64922 0.386156C6.69064 0.170107 6.8791 0 7.10894 0H10.7866C11.0165 0 11.205 0.170107 11.2417 0.386156L11.5865 2.8226C12.1473 3.05706 12.6668 3.36047 13.1403 3.72822L15.4297 2.8042C15.6365 2.72607 15.8756 2.8042 15.9905 3.00189L17.8294 6.18768C17.9443 6.38537 17.8937 6.63362 17.7191 6.7761L15.7791 8.29775C15.8159 8.59198 15.8434 8.89078 15.8434 9.19419C15.8434 9.49759 15.8159 9.79639 15.7791 10.0906L17.7191 11.6123C17.8937 11.7502 17.9443 11.9984 17.8294 12.2007L15.9905 15.3865C15.8756 15.5842 15.6366 15.6669 15.4297 15.5842L13.1404 14.6602C12.6668 15.0233 12.1474 15.3313 11.5865 15.5658L11.2418 18.0022C11.205 18.2183 11.0165 18.3884 10.7867 18.3884H7.10899C6.87915 18.3884 6.69064 18.2183 6.65387 18.0022L6.30909 15.5658C5.74826 15.3313 5.22876 15.0279 4.75529 14.6602L2.46593 15.5842C2.25906 15.6623 2.02 15.5842 1.9051 15.3865L0.0662441 12.2007C-0.0487404 12.003 0.00185776 11.7548 0.176533 11.6123ZM8.9478 12.4122C10.7269 12.4122 12.1658 10.9733 12.1658 9.19419C12.1658 7.41511 10.7269 5.97624 8.9478 5.97624C7.16872 5.97624 5.72982 7.41515 5.72982 9.19423C5.72982 10.9733 7.16872 12.4122 8.9478 12.4122Z" fill="#FF0000"/>
</svg>
