<svg width="29" height="29" viewBox="0 0 29 29" fill="none" xmlns="http://www.w3.org/2000/svg">
<path d="M14.5003 0C6.50459 0 0 6.50459 0 14.5005C0 22.4962 6.50459 29.001 14.5003 29.001C22.4957 29.001 29.0003 22.4962 29.0003 14.5005C29.0003 6.50459 22.4957 0 14.5003 0ZM14.5003 27.8188C7.15669 27.8188 1.18222 21.8439 1.18222 14.5005C1.18222 7.15694 7.15669 1.18222 14.5003 1.18222C21.8436 1.18222 27.8181 7.15694 27.8181 14.5005C27.8181 21.8439 21.8436 27.8188 14.5003 27.8188Z" fill="#52E6C6"/>
<path d="M21.9908 8.71805L11.6805 19.0282L7.013 14.3609C6.78216 14.1301 6.40812 14.1301 6.17703 14.3609C5.9462 14.5918 5.9462 14.9658 6.17703 15.1969L11.2625 20.2821C11.3779 20.3975 11.5292 20.4551 11.6805 20.4551C11.8318 20.4551 11.9831 20.3975 12.0985 20.2821L22.8268 9.55401C23.0576 9.32317 23.0576 8.94889 22.8268 8.71805C22.596 8.48721 22.2217 8.48721 21.9908 8.71805Z" fill="#52E6C6"/>
</svg>
