<svg width="8" height="8" viewBox="0 0 8 8" fill="none" xmlns="http://www.w3.org/2000/svg">
<path d="M4.44196 4.00002L7.90846 0.533488C8.03051 0.411441 8.03051 0.213566 7.90846 0.0915351C7.78642 -0.0304961 7.58854 -0.0305117 7.46651 0.0915351L3.99999 3.55806L0.533487 0.0915351C0.41144 -0.0305117 0.213566 -0.0305117 0.0915349 0.0915351C-0.030496 0.213582 -0.0305116 0.411457 0.0915349 0.533488L3.55804 4L0.0915349 7.46653C-0.0305116 7.58858 -0.0305116 7.78645 0.0915349 7.90848C0.15255 7.9695 0.232534 8 0.312519 8C0.392503 8 0.472471 7.9695 0.533502 7.90848L3.99999 4.44197L7.4665 7.90848C7.52751 7.9695 7.6075 8 7.68748 8C7.76747 8 7.84743 7.9695 7.90846 7.90848C8.03051 7.78644 8.03051 7.58856 7.90846 7.46653L4.44196 4.00002Z" fill="black"/>
</svg>
