<svg width="20" height="20" viewBox="0 0 20 20" fill="none" xmlns="http://www.w3.org/2000/svg">
<path d="M10 0C8.02219 0 6.08879 0.58649 4.4443 1.6853C2.79981 2.78412 1.51809 4.3459 0.761209 6.17316C0.00433283 8.00043 -0.1937 10.0111 0.192152 11.9509C0.578004 13.8907 1.53041 15.6725 2.92894 17.0711C4.32746 18.4696 6.10929 19.422 8.0491 19.8078C9.98891 20.1937 11.9996 19.9957 13.8268 19.2388C15.6541 18.4819 17.2159 17.2002 18.3147 15.5557C19.4135 13.9112 20 11.9778 20 10C19.9998 7.34789 18.9462 4.80446 17.0709 2.92914C15.1955 1.05381 12.6521 0.000185676 10 0V0ZM14.5638 7.79653C14.568 7.89502 14.5701 7.99398 14.5701 8.0934C14.576 8.95268 14.4112 9.80457 14.0851 10.5996C13.759 11.3946 13.2782 12.1169 12.6706 12.7245C12.063 13.3321 11.3407 13.8129 10.5457 14.139C9.75066 14.4651 8.89877 14.63 8.03949 14.624C6.79199 14.6251 5.57054 14.2671 4.52108 13.5926C4.70282 13.6139 4.88565 13.6244 5.06862 13.6241C6.10183 13.6264 7.10579 13.2812 7.91906 12.6439C7.44011 12.6348 6.97598 12.4762 6.59157 12.1903C6.20717 11.9045 5.92171 11.5056 5.7751 11.0496C6.1192 11.1161 6.47399 11.1027 6.81207 11.0104C6.29244 10.9053 5.82519 10.6236 5.48965 10.2131C5.15411 9.80266 4.97096 9.28873 4.9713 8.75858C4.9713 8.74807 4.9713 8.73897 4.9713 8.72917C5.28992 8.90668 5.6465 9.00513 6.01107 9.01624C5.52519 8.69146 5.18137 8.19371 5.0496 7.62434C4.91782 7.05496 5.008 6.45677 5.30178 5.95155C5.87816 6.66065 6.59724 7.2406 7.41231 7.65375C8.22739 8.0669 9.12025 8.304 10.0329 8.34967C9.91825 7.85753 9.9691 7.34132 10.1776 6.88102C10.3861 6.42072 10.7405 6.04203 11.1861 5.80362C11.6316 5.56522 12.1434 5.48041 12.642 5.56235C13.1406 5.64428 13.5983 5.88838 13.9441 6.25683C14.4589 6.15581 14.9526 5.96755 15.404 5.70018C15.2324 6.2317 14.8736 6.68282 14.3943 6.96961C14.8492 6.91578 15.2934 6.79399 15.7121 6.60832C15.4043 7.07002 15.0166 7.4731 14.5673 7.79863L14.5638 7.79653Z" fill="#FF0000"/>
</svg>
