<svg width="19" height="16" viewBox="0 0 19 16" fill="none" xmlns="http://www.w3.org/2000/svg">
<path d="M19.0003 2.19107C18.3223 2.48846 17.6 2.68558 16.8468 2.78129C17.6216 2.31869 18.213 1.59174 18.491 0.715519C17.7686 1.14622 16.971 1.45045 16.121 1.62022C15.435 0.889851 14.4574 0.4375 13.3909 0.4375C11.3217 0.4375 9.65589 2.11701 9.65589 4.17595C9.65589 4.4722 9.68096 4.75705 9.74249 5.02824C6.63528 4.87669 3.88585 3.38747 2.03885 1.11888C1.71639 1.67833 1.52725 2.31869 1.52725 3.00804C1.52725 4.30242 2.19381 5.44982 3.18739 6.11411C2.58691 6.10271 1.99783 5.92838 1.49876 5.65378C1.49876 5.66517 1.49876 5.67999 1.49876 5.6948C1.49876 7.51104 2.79429 9.01964 4.49317 9.36716C4.18894 9.45034 3.85737 9.49022 3.51326 9.49022C3.27398 9.49022 3.03243 9.47654 2.80568 9.42641C3.28994 10.9065 4.66408 11.9947 6.29801 12.03C5.02642 13.0247 3.41185 13.624 1.66398 13.624C1.35747 13.624 1.0635 13.6104 0.769531 13.5728C2.42511 14.6404 4.3872 15.25 6.50311 15.25C13.3807 15.25 17.1408 9.55289 17.1408 4.61462C17.1408 4.44941 17.1351 4.28989 17.1271 4.13151C17.8689 3.6051 18.4921 2.94765 19.0003 2.19107Z" fill="#1DA1F3"/>
</svg>
