<svg width="23" height="16" viewBox="0 0 23 16" fill="none" xmlns="http://www.w3.org/2000/svg">
<path d="M22.3619 2.45341C22.1039 1.49405 21.3475 0.737799 20.3883 0.479474C18.6359 0 11.6262 0 11.6262 0C11.6262 0 4.61688 0 2.86451 0.461295C1.92374 0.719347 1.1489 1.49419 0.890846 2.45341C0.429688 4.20564 0.429688 7.83956 0.429688 7.83956C0.429688 7.83956 0.429688 11.4918 0.890846 13.2257C1.14917 14.1849 1.90528 14.9412 2.86464 15.1995C4.63533 15.6791 11.6265 15.6791 11.6265 15.6791C11.6265 15.6791 18.6359 15.6791 20.3883 15.2178C21.3476 14.9596 22.1039 14.2034 22.3622 13.2442C22.8232 11.4918 22.8232 7.85801 22.8232 7.85801C22.8232 7.85801 22.8417 4.20564 22.3619 2.45341ZM9.39453 11.1967V4.48242L15.2234 7.83956L9.39453 11.1967Z" fill="#FF0000"/>
</svg>
